<svg xmlns="http://www.w3.org/2000/svg" viewBox="0 0 500 460" shape-rendering="crispEdges">
  <!-- State of Arizona (transparent bg, light-blue fill to match Florida/California).
       North + east borders are straight with light pixel texture; the west side is the
       stair-stepped Colorado River, meeting the angled south (Gadsden) border at Yuma (SW). -->
  <polygon fill="#53aedd" points="
    128,96 150,94 180,95 210,93 240,94 270,93 300,94 330,93 360,94 390,92
    391,130 389,170 391,210 389,250 391,290 389,330 391,370 390,410 390,420
    350,420 312,421 312,432 268,432 232,433
    224,433 224,420 212,418 212,405 200,403 200,390 189,388 189,375 178,373 178,360
    167,358 167,345 157,343 157,330 147,328 147,315 138,313 138,300 130,298
    130,270 133,250 129,225 131,200 126,180 130,160 128,135 131,115 128,96" />
  <!-- Location marker: southern Arizona (Tucson region) -->
  <rect x="282" y="368" width="22" height="22" fill="#f3df1b" />
</svg>
